<?xml version="1.0" encoding="UTF-8"?>
<svg id="Ebene_2" data-name="Ebene 2" xmlns="http://www.w3.org/2000/svg" viewBox="0 0 268.77 131.7">
  <defs>
    <style>
      .cls-1 {
        fill: #581112;
      }

      .cls-1, .cls-2 {
        stroke-width: 0px;
      }

      .cls-2 {
        fill: #c0a996;
      }
    </style>
  </defs>
  <g id="Ebene_1-2" data-name="Ebene 1">
    <g id="Logo-full-color">
      <path class="cls-2" d="M30.08,121.69c-3.46-2.42-6.58-5.04-9.6-8.04-.76-.75-1.51-1.74-2.25-2.58-.73-.84-1.47-1.79-2.11-2.71-.64-.92-1.37-1.91-1.95-2.8s-1.19-2.08-1.63-2.85c-.44-.77-.6-1.01-.94-1.67-.34-.66-.44-.96-.79-1.74-.35-.78-.95-2.05-1.3-2.96-.36-.91-.77-2.25-1.04-3.06-.27-.81-.39-1.1-.58-1.8-.19-.71-.24-1.01-.42-1.85s-.54-2.18-.68-3.15c-.14-.97-.36-2.37-.4-3.26-.11-2.38-.51-4.64-.25-6.91,1.07-9.13,3.24-17.5,7.66-25.53,2.21-4.02,5.15-7.33,8.42-10.41,3.27-3.08,6.7-5.87,10.76-7.72,8.12-3.7,16.02-6.5,25.05-6.73,9.03-.23,17.4,1.6,25.71,5.31,8.31,3.71,14.61,10.13,21.04,16.44.3-.08.56-.3.85-.45-4.71-8.88-10.47-15.89-18.26-22.24-.31-.25-.71-.4-1.03-.69,8.85-6.31,17.7-11.79,28.35-14.38,10.97-2.66,21.72-2.79,32.84-1.54,5.56.62,10.52,2.61,15.64,4.69,5.12,2.08,9.5,4.38,14.35,7.34,4.84,2.96,8.78,5.74,13.38,9.99s10.1,10.52,14.7,15.31c.37-.04.59-.3.89-.44-2.5-5.81-5.51-11.29-8.73-16.73,7.26-2.67,14.18-4.56,21.94-4.55,1.01,0,1.97.24,2.88.4.91.16,2.01.36,2.77.57,2.02.57,3.78,1.17,5.62,1.97,1.84.8,3.53,1.64,5.23,2.66s3.34,2.12,4.9,3.38c1.56,1.27,2.98,2.59,4.37,4.1,1.39,1.51,2.56,3.08,3.87,4.8.49.64,1.2,1.59,1.75,2.37.55.79,1.09,1.69,1.7,2.57.23.33.59.77.88,1.22.29.45.47.81.85,1.42.38.61,1.16,1.68,1.56,2.39,2.16,3.77,4.13,7.34,5.83,11.37,1.69,4.04,3.06,8.44,4.48,12.63.34.02.66.02,1.02,0,.82-4.77,1.78-9.58,1.15-14.42-.63-4.84-1.53-9.94-3.88-14.16-4.73-8.53-11.1-15.63-19.22-20.6s-16.1-7.21-25.32-7.26c-8.83-.05-15.44,4.43-23.15,7.85-4.25-5.39-8.41-10.91-14.02-15.02-5.05-3.7-10.48-6.42-16.39-8.32-5.91-1.9-12.03-2.93-18.15-3.5-6.12-.57-12.24-.48-18.23.39-5.99.87-11.79,2.22-17.3,4.45-10.74,4.33-19.2,10.59-27.54,18.44-8.93-3.68-17.51-7.79-27.41-7.63-10.7.17-20.62,2.59-29.67,8.31s-15.93,13.22-21.06,22.5C2.09,56.1.05,65.77,0,76.29c-.05,10.52,3.94,19.37,8.23,28.86.4.89,1.39,2.1,2.05,3.06.66.96,1.53,1.94,2.32,2.92.79.98,1.53,1.87,2.51,2.81.98.95,1.51,1.72,2.77,2.74,5.02,4.12,10.78,7.9,16.53,11.18-1.42-2.06-2.88-4.12-4.31-6.18Z"/>
      <g>
        <path class="cls-1" d="M72.16,90.09c-7.43-8.09-10.38-13.81-10.38-18,0-1.43.38-2.67.95-3.81,1.71-3.14,5.05-4.38,8.48-4.38,1.81,0,3.62.38,5.24.95,4.57,1.62,8.95,6,8.28,10.09-.38,2.76-3.43,5.05-5.24,3.14-.1-.19-.19.1-.38.19-.29.38-.57.86-.57,1.43-.1,1.14.19,2.95,2.67,4.19.86.38,1.71.57,2.67.57,4.38,0,9.24-4.09,10.86-8.48.48-1.33.76-2.76.76-4.19,0-6.76-5.52-13.9-16.19-15.9-2.09-.38-4-.57-5.9-.57-9.14,0-16.09,4.29-19.9,11.05-1.43,2.48-2.1,5.43-2.1,8.57,0,6.95,3.43,15.14,10.38,22.47l4.38,4.57c3.62,3.9,7.43,8.95,7.43,13.52,0,1.24-.29,2.48-.95,3.62-1.81,3.14-6.48,4.76-11.33,4.76-2.67,0-5.33-.48-7.71-1.43-5.33-2.1-9.14-6.38-8.48-10.76.48-3.52,4.19-6.09,6.67-5.33h.1c.09-.1.19-.48-.1-1.24-.48-1.43-2.19-3.43-5.24-3.52-5.05-.29-11.43,3.05-12.76,10.76-1.43,7.81,5.52,15.9,16.76,18.47,2.57.57,5.24.86,7.81.86,11.62,0,22-5.62,25.71-12.95,1.24-2.38,1.81-4.67,1.81-6.86,0-5.43-3.43-10.76-10-17.81l-3.71-4Z"/>
        <path class="cls-1" d="M257.01,107.99c-.86-.95-2.29-1.62-2.67-.95-1.52,2.67-6.76,14.66-13.14,13.24-1.24-.29-1.62-1.14-1.62-2.48,0-2.1,1.14-5.14,2.29-7.62l6.86-14.86c.38-.86.1-1.52-.76-2l-4.47-2.29c-1.14-.57-2.29-.38-3.52.38,0,0-.76.76-1.52,1.14-1.05.38-1.71-.1-1.91-.48-.1-.38-.1-.57,0-1.14,0-1.81-1.81-4.95-5.81-4.28-3.33.57-5.81,3.71-5.62,7.24,0,.86.29,1.62.67,2.1-.76,2-2,4.86-3.05,6.95-1.82,3.77-3.26,6.43-4.11,8.05-1.37,2.26-2.5,4.38-4.46,6.33-2.86,3.05-6.76,5.52-11.14,5.52-3.9,0-6.19-1.71-6-5.71l.1-1.05c8.19-2.48,21.62-12.09,21.62-21.62,0-3.71-2.95-4.76-6.19-4.76-10.53,0-22.32,11.51-25.34,22.38-3.22,5.34-7.64,9.44-10.95,8.09-2.38-1.05-.48-4.67-.19-7.9.19-1.72-.19-4.57-4.48-5.43.86-.86,8.76-11.9,12.19-12.19.86-.1,1.24.28,1.24.67,0,.57-.67,1.43-1.43,1.71-1.71.67-3.24,2.1-3.52,4.19-.19,1.72.86,3.52,2.95,3.52,4,0,7.05-4.38,6.76-8.48-.38-4.28-3.62-5.9-6.76-5.9-3.43,0-6.19,1.62-8.57,3.72-4.19,3.71-6.95,8.86-9.14,9.14-.48.1-.95-.1-1.43-.57,7.52-14.95,18.38-38.57,18.38-38.57,1.05-2.29,0-3.33-1.9-3.33-2.76.19-6.95,2.29-8.29,5.05l-21.58,45.97c-3.16,5.44-6.95,9.62-10.8,8.41-1.05-.28-1.43-1.14-1.43-2.28,0-4.48,6.28-14.1,6.86-19.14.67-5.05-1.91-8.38-6.09-8.48-4.48-.19-8.48,2.76-10.76,5.43l1.71-4.09c.29-.67-.48-1.14-.86-1.14h-5.43c-.86,0-1.24.29-1.43.86l-8.4,18.2c-2.52,4.76-7.64,12.69-12.27,10.46-1.33-.57-1.81-2.67,0-6.67l9.9-21.9c.19-.57.29-.95-.29-.95h-7.9c-.48,0-.86.38-.95.67l-11.14,23.52c-1.05,2.1-1.43,4.09-1.43,5.91,0,4.95,3.52,8.19,8.95,8,2.65-.09,5.04-.76,7.18-1.81l-.13.29c-.19.38-.29.86.48.86h7.52c.76,0,.95-.19,1.24-.86l7.9-17.05c1.62-3.52,3.05-5.81,4.86-8.29,2.29-3.05,4.76-5.14,6.57-4.38,1.62.57,1.24,4.67-.86,8.86l-4.09,8.47c-1.05,2.19-1.52,4.19-1.52,5.91,0,4.09,2.57,6.85,5.81,7.62.86.19,1.81.29,2.86.29,2.08,0,4.43-.48,6.85-1.59-.17.47.02,1.02.48,1.02h7.14c.48,0,.86-.38,1.14-.86l9.33-19.33c.1.67.38.95.86,1.24.86.48,2.19.19,3.43.1.86,0,1.52.09,1.9.76,1.14,2-2.86,7.43-2.29,12.19.57,5.24,4.28,6.48,8,6.48,4.57,0,9.57-2.18,13.85-6.77,1.86,5.16,6.92,7.44,12.82,7.44,6.95,0,13.9-2.48,18.47-7.81.52-.65,1.21-1.51,1.89-2.47,0,0,.01,0,.02,0,1.14-1.24,4.38-7.05,6.57-11.71,1.43-2.85,3.05-6.57,3.05-6.57.76-1.71,2.29-2.76,3.91-3.24,1.52-.48,1.9-.38,2.86.48.86.76.29,2.29-.19,3.43l-6,13.05c-.86,1.81-1.33,3.71-1.33,5.62,0,4.57,2.76,8.47,9.52,8.47,8.86,0,16.38-10,19.05-16.38.67-1.52,0-3.05-.86-4ZM212.83,94.09c1.05,0,1.62.57,1.62,1.52,0,6.29-11.05,13.43-16.19,15.81,1.52-4.19,9.52-17.33,14.57-17.33Z"/>
      </g>
      <g>
        <path class="cls-2" d="M40.57,41.65h-2.12c-.64,0-1.16-.52-1.16-1.16l-.8-1.31s-.03-.06-.02-.1c.07-.61,1.36-1.08,1.98-1.08h2.12c.64,0,2.05.49,2.05,1.13l-.89,1.36c0,.64-.52,1.16-1.16,1.16Z"/>
        <path class="cls-2" d="M64.91,35.56l-2.17-.75c-.64,0-1.16-.52-1.16-1.16v-.53c0-.64.52-1.16,1.16-1.16h2.12c.64,0,1.16.52,1.16,1.16v.53c0,.64-.47,1.91-1.11,1.91Z"/>
        <path class="cls-2" d="M137.62,14.27l-.81-.49c-.62,0-2.51-.01-2.51-.63v-.61c0-.62,1.07-1.69,1.69-1.69l1.62.57c.62,0,1.12.5,1.12,1.12v.61c0,.62-.5,1.12-1.12,1.12Z"/>
        <path class="cls-2" d="M117.01,17.12l-1.94-.51c-.64,0-1.34,0-1.34-.65l-.47-.97c.29-.47.99-.72,1.63-.72l2.66-.18c.64,0,.62.69.62,1.33v.53c0,.64-.52,1.16-1.16,1.16Z"/>
        <path class="cls-2" d="M217.24,33.08l-1.65-.5c-.64,0-1.19-.36-1.25-.66l-.11-.46c-.22-.49.41-1.13,1.05-1.13l1.96-.1c.64,0,1.16.52,1.16,1.16v.53c0,.64-.52,1.16-1.16,1.16Z"/>
        <path class="cls-2" d="M228.96,43.18l-1.72.46c-.64,0-1.16-.52-1.16-1.16l-.23-1.14c0-.64.74-.55,1.38-.55h2.12c.64,0,1.16.52,1.16,1.16v.53c0,.64-.92.69-1.55.69Z"/>
        <path class="cls-2" d="M163.09,23.07h-2.12c-.64,0-1.59-.25-1.59-.89l.43-.8c0-.64.52-1.16,1.16-1.16h2.12c.64,0,.28.57.28,1.21l.87.48c0,.64-.52,1.16-1.16,1.16Z"/>
        <path class="cls-2" d="M131.52,28.4h-.65c-.86,0-1.55-.69-1.55-1.55v-.14c0-.64.52-1.16,1.16-1.16l.76.54c.64,0,1.58-.41,1.58.23l-.35,1.14c0,.52-.42.94-.94.94Z"/>
      </g>
      <circle class="cls-1" cx="111.43" cy="78.79" r="5.97"/>
    </g>
  </g>
</svg>